<mxfile host="app.diagrams.net" agent="Mozilla/5.0 (Windows NT 10.0; Win64; x64) AppleWebKit/537.36 (KHTML, like Gecko) Chrome/133.0.0.0 Safari/537.36" version="26.1.1">
  <diagram name="Page-1" id="I8oheF-3CAz8n7zOtg30">
    <mxGraphModel dx="2909" dy="2120" grid="1" gridSize="10" guides="1" tooltips="1" connect="1" arrows="1" fold="1" page="1" pageScale="1" pageWidth="850" pageHeight="1100" math="0" shadow="0">
      <root>
        <mxCell id="0" />
        <mxCell id="1" parent="0" />
        <mxCell id="7ijYux6PmPlop0t9_jEp-1" value="initial&amp;nbsp;" style="ellipse;whiteSpace=wrap;html=1;" vertex="1" parent="1">
          <mxGeometry x="240" y="110" width="120" height="80" as="geometry" />
        </mxCell>
        <mxCell id="7ijYux6PmPlop0t9_jEp-2" value="TFOUND" style="ellipse;whiteSpace=wrap;html=1;" vertex="1" parent="1">
          <mxGeometry x="100" y="290" width="120" height="80" as="geometry" />
        </mxCell>
        <mxCell id="7ijYux6PmPlop0t9_jEp-3" value="YFOUND" style="ellipse;whiteSpace=wrap;html=1;" vertex="1" parent="1">
          <mxGeometry x="340" y="290" width="120" height="80" as="geometry" />
        </mxCell>
        <mxCell id="7ijYux6PmPlop0t9_jEp-6" value="" style="curved=1;endArrow=classic;html=1;rounded=0;exitX=0;exitY=0.5;exitDx=0;exitDy=0;entryX=0.5;entryY=0;entryDx=0;entryDy=0;" edge="1" parent="1" source="7ijYux6PmPlop0t9_jEp-1" target="7ijYux6PmPlop0t9_jEp-2">
          <mxGeometry width="50" height="50" relative="1" as="geometry">
            <mxPoint x="170" y="230" as="sourcePoint" />
            <mxPoint x="210" y="260" as="targetPoint" />
            <Array as="points">
              <mxPoint x="170" y="180" />
            </Array>
          </mxGeometry>
        </mxCell>
        <mxCell id="7ijYux6PmPlop0t9_jEp-8" value="char &#39;t&#39; or &#39;T&#39; found&amp;nbsp;" style="edgeLabel;html=1;align=center;verticalAlign=middle;resizable=0;points=[];" vertex="1" connectable="0" parent="7ijYux6PmPlop0t9_jEp-6">
          <mxGeometry x="0.0177" y="14" relative="1" as="geometry">
            <mxPoint as="offset" />
          </mxGeometry>
        </mxCell>
        <mxCell id="7ijYux6PmPlop0t9_jEp-9" value="" style="curved=1;endArrow=classic;html=1;rounded=0;exitX=1;exitY=1;exitDx=0;exitDy=0;entryX=0;entryY=1;entryDx=0;entryDy=0;" edge="1" parent="1" source="7ijYux6PmPlop0t9_jEp-2" target="7ijYux6PmPlop0t9_jEp-3">
          <mxGeometry width="50" height="50" relative="1" as="geometry">
            <mxPoint x="230" y="370" as="sourcePoint" />
            <mxPoint x="280" y="320" as="targetPoint" />
            <Array as="points">
              <mxPoint x="280" y="370" />
            </Array>
          </mxGeometry>
        </mxCell>
        <mxCell id="7ijYux6PmPlop0t9_jEp-10" value="char &#39;y&#39; or &#39;Y&#39;&amp;nbsp;" style="edgeLabel;html=1;align=center;verticalAlign=middle;resizable=0;points=[];" vertex="1" connectable="0" parent="7ijYux6PmPlop0t9_jEp-9">
          <mxGeometry x="-0.0657" y="13" relative="1" as="geometry">
            <mxPoint as="offset" />
          </mxGeometry>
        </mxCell>
        <mxCell id="7ijYux6PmPlop0t9_jEp-12" value="" style="curved=1;endArrow=classic;html=1;rounded=0;exitX=0.5;exitY=0;exitDx=0;exitDy=0;entryX=1;entryY=0.5;entryDx=0;entryDy=0;" edge="1" parent="1" source="7ijYux6PmPlop0t9_jEp-3" target="7ijYux6PmPlop0t9_jEp-1">
          <mxGeometry width="50" height="50" relative="1" as="geometry">
            <mxPoint x="210" y="330" as="sourcePoint" />
            <mxPoint x="260" y="280" as="targetPoint" />
            <Array as="points">
              <mxPoint x="420" y="210" />
            </Array>
          </mxGeometry>
        </mxCell>
        <mxCell id="7ijYux6PmPlop0t9_jEp-13" value="anything else" style="edgeLabel;html=1;align=center;verticalAlign=middle;resizable=0;points=[];" vertex="1" connectable="0" parent="7ijYux6PmPlop0t9_jEp-12">
          <mxGeometry x="-0.3508" y="11" relative="1" as="geometry">
            <mxPoint as="offset" />
          </mxGeometry>
        </mxCell>
        <mxCell id="7ijYux6PmPlop0t9_jEp-14" value="" style="curved=1;endArrow=classic;html=1;rounded=0;exitX=1;exitY=0;exitDx=0;exitDy=0;entryX=0;entryY=1;entryDx=0;entryDy=0;" edge="1" parent="1" source="7ijYux6PmPlop0t9_jEp-2" target="7ijYux6PmPlop0t9_jEp-1">
          <mxGeometry width="50" height="50" relative="1" as="geometry">
            <mxPoint x="220" y="300" as="sourcePoint" />
            <mxPoint x="270" y="250" as="targetPoint" />
            <Array as="points">
              <mxPoint x="258" y="250" />
            </Array>
          </mxGeometry>
        </mxCell>
        <mxCell id="7ijYux6PmPlop0t9_jEp-15" value="anything else" style="edgeLabel;html=1;align=center;verticalAlign=middle;resizable=0;points=[];" vertex="1" connectable="0" parent="7ijYux6PmPlop0t9_jEp-14">
          <mxGeometry x="-0.1209" y="10" relative="1" as="geometry">
            <mxPoint as="offset" />
          </mxGeometry>
        </mxCell>
        <mxCell id="7ijYux6PmPlop0t9_jEp-24" value="record index @T" style="text;html=1;align=center;verticalAlign=middle;whiteSpace=wrap;rounded=0;" vertex="1" parent="1">
          <mxGeometry x="130" y="370" width="60" height="30" as="geometry" />
        </mxCell>
        <mxCell id="7ijYux6PmPlop0t9_jEp-25" value="record index @Y" style="text;html=1;align=center;verticalAlign=middle;whiteSpace=wrap;rounded=0;" vertex="1" parent="1">
          <mxGeometry x="370" y="370" width="60" height="30" as="geometry" />
        </mxCell>
        <mxCell id="7ijYux6PmPlop0t9_jEp-26" value="end" style="ellipse;whiteSpace=wrap;html=1;" vertex="1" parent="1">
          <mxGeometry x="590" y="290" width="120" height="80" as="geometry" />
        </mxCell>
        <mxCell id="7ijYux6PmPlop0t9_jEp-27" value="" style="curved=1;endArrow=classic;html=1;rounded=0;entryX=0;entryY=0.5;entryDx=0;entryDy=0;exitX=1;exitY=0.5;exitDx=0;exitDy=0;" edge="1" parent="1" source="7ijYux6PmPlop0t9_jEp-3" target="7ijYux6PmPlop0t9_jEp-26">
          <mxGeometry width="50" height="50" relative="1" as="geometry">
            <mxPoint x="450" y="480" as="sourcePoint" />
            <mxPoint x="500" y="430" as="targetPoint" />
            <Array as="points">
              <mxPoint x="530" y="330" />
            </Array>
          </mxGeometry>
        </mxCell>
        <mxCell id="7ijYux6PmPlop0t9_jEp-28" value="if tIndex &amp;lt; yIndex" style="edgeLabel;html=1;align=center;verticalAlign=middle;resizable=0;points=[];" vertex="1" connectable="0" parent="7ijYux6PmPlop0t9_jEp-27">
          <mxGeometry x="-0.2654" y="-1" relative="1" as="geometry">
            <mxPoint x="12" y="-1" as="offset" />
          </mxGeometry>
        </mxCell>
        <mxCell id="7ijYux6PmPlop0t9_jEp-29" value="return substring from tIndex to yIndex" style="text;html=1;align=center;verticalAlign=middle;whiteSpace=wrap;rounded=0;" vertex="1" parent="1">
          <mxGeometry x="570" y="370" width="160" height="30" as="geometry" />
        </mxCell>
      </root>
    </mxGraphModel>
  </diagram>
</mxfile>
